<?xml version="1.0" encoding="UTF-8"?>
<!DOCTYPE svg PUBLIC "-//W3C//DTD SVG 1.1//EN" "http://www.w3.org/Graphics/SVG/1.1/DTD/svg11.dtd">
<!-- Creator: CorelDRAW -->
<svg xmlns="http://www.w3.org/2000/svg" xml:space="preserve" width="1.44445in" height="0.39848in" version="1.1" style="shape-rendering:geometricPrecision; text-rendering:geometricPrecision; image-rendering:optimizeQuality; fill-rule:evenodd; clip-rule:evenodd"
viewBox="0 0 1319.46 364"
 xmlns:xlink="http://www.w3.org/1999/xlink"
 xmlns:xodm="http://www.corel.com/coreldraw/odm/2003">
 <defs>
  <style type="text/css">
   <![CDATA[
    .fil0 {fill:#215C5C}
    .fil1 {fill:#373435;fill-rule:nonzero}
   ]]>
  </style>
 </defs>
 <g id="Layer_x0020_1">
  <metadata id="CorelCorpID_0Corel-Layer"/>
  <g id="_2277655800768">
   <path class="fil0" d="M316.37 34.69l92.79 -33.7 -22.66 137.57 -0.35 -0.42c3.48,14.05 5.34,28.75 5.34,43.87 0,100.52 -81.48,182 -182,182 -64.82,0 -121.73,-33.9 -153.97,-84.93 -103.47,10.32 -33.92,-16.85 -16.41,-32.97 -7.51,-19.94 -11.62,-41.54 -11.62,-64.1 0,-100.52 81.48,-182 182,-182 39.94,0 76.86,12.87 106.88,34.69zm-266.96 227.45c7.33,-1.37 106.53,-29.27 201.12,-109.03 0,0 67.17,-60.95 89.58,-90.93l-13.5 -12.42 60.23 -21.88 -11.35 68.87 -14.58 -18.09c0,0 -151.41,160.16 -311.5,183.49zm160.09 -236.97c43.23,0 82.37,17.5 110.75,45.79 -2.9,3.23 -5.85,6.39 -8.78,9.48l-0.2 -0.2c-17,-17 -38.24,-29.76 -61.98,-36.58 7.64,7.67 14.55,17.51 20.48,29.09 3.42,6.67 6.53,13.93 9.29,21.69 9.27,-2.01 17.93,-4.42 25.85,-7.15 -6.14,6.33 -12.39,12.57 -18.68,18.75l-3.22 0.73 0.54 1.88 -3.18 3.09c-2.47,2.4 -4.95,4.79 -7.44,7.17 -0.8,-3.28 -1.66,-6.5 -2.59,-9.64 -16.81,2.95 -35.15,4.72 -54.39,5.05l0 53.68c-2.71,2 -5.45,3.97 -8.2,5.92l-0.04 0.03 -0.26 0.18 -0.15 0.11 -0.14 0.1 -0.06 0.04 -0.81 0.58 -0.01 0 -0.19 0.14 -0.1 0.07 -0.1 0.07 -0.19 0.13 -0.01 0.01 -0.2 0.14 -0.37 0.26 -0.04 0.03 -0.41 0.29 -0.14 0.1 -0.06 0.05 -0.2 0.14 -0.03 0.02 -0.17 0.12 -0.12 0.08 -0.08 0.06 -0.2 0.14 -0.01 0 -0.19 0.14 -0.1 0.06 -0.1 0.08 -0.19 0.13 -0.01 0.01c-4.31,2.98 -8.67,5.92 -13.07,8.79l-51.14 0c0.13,9.88 0.77,19.51 1.85,28.79 -4.05,2.11 -8.12,4.17 -12.22,6.18 -1.51,-11.22 -2.39,-22.93 -2.55,-34.97l-60.29 0c0.55,20.13 5.23,39.23 13.23,56.48 -3.75,1.4 -7.52,2.75 -11.3,4.05l-0.91 0.31c-8.47,-18.61 -13.4,-39.18 -13.94,-60.84l-0 0 0 -0.12c-0.03,-1.29 -0.05,-2.59 -0.05,-3.89 0,-1.31 0.01,-2.61 0.05,-3.91l0 -5 0.2 0c2.22,-39.76 19.26,-75.57 45.68,-101.99 28.38,-28.38 67.59,-45.94 110.9,-45.94zm-6.46 147.92l0 -58.77c-19.23,-0.33 -37.57,-2.1 -54.39,-5.05 -5.56,18.96 -9,40.64 -9.71,63.82l64.1 0zm-77.02 0c0.7,-23.94 4.24,-46.46 9.96,-66.33 -12.98,-2.88 -24.84,-6.49 -35.24,-10.71 -1.72,-0.7 -3.41,-1.42 -5.06,-2.15 -17.17,22.15 -28.01,49.45 -29.83,79.18l60.18 0zm89.93 -134.39l0 62.71c17.8,-0.31 34.75,-1.89 50.32,-4.52 -2.39,-6.53 -5.06,-12.64 -7.95,-18.29 -11.35,-22.12 -26.17,-36.79 -42.37,-39.9zm-12.91 62.71l0 -62.71c-16.2,3.11 -31.02,17.78 -42.37,39.9 -2.9,5.65 -5.55,11.77 -7.95,18.29 15.57,2.63 32.53,4.21 50.32,4.52zm-63.1 -6.98c2.75,-7.76 5.86,-15.03 9.28,-21.69 5.94,-11.58 12.85,-21.42 20.49,-29.09 -23.75,6.82 -44.99,19.58 -61.99,36.58 -1.11,1.11 -2.21,2.24 -3.29,3.4l1.14 0.47c10.08,4.08 21.65,7.57 34.36,10.33zm38.39 134.41l0.42 0 0 93.78c8.4,1.83 17.07,2.92 25.94,3.21l0 -111.53c10.5,-6.14 20.79,-12.55 30.81,-19.15l0 128.42c7.9,-1.44 15.57,-3.53 22.96,-6.2l0 -137.95c4.23,-3.01 8.39,-6.04 12.49,-9.08 6.16,-4.57 12.27,-9.23 18.32,-13.98l0 145.44c7.91,-5.28 15.28,-11.32 21.98,-18.03 1.13,-1.13 2.23,-2.28 3.32,-3.44l0 -144.62c9.08,-7.7 17.99,-15.58 26.73,-23.63 1.35,-1.25 2.72,-2.51 4.07,-3.77l0 121.19c5.2,-14.87 8.03,-30.86 8.03,-47.5 0,-5.38 -0.02,-9.05 -0.39,-13.31 1.94,-9.01 4.68,-24.43 4.42,-38.85 5.75,16.32 8.88,33.87 8.88,52.16 0,43.31 -17.56,82.51 -45.94,110.9 -28.38,28.38 -67.59,45.93 -110.9,45.93 -43.31,0 -82.52,-17.55 -110.9,-45.93 -7.95,-7.95 -15.04,-16.75 -21.14,-26.24 4.42,-1.04 8.85,-2.16 13.25,-3.38 5.04,7.35 10.74,14.21 17.02,20.49 11.61,11.61 25.2,21.24 40.22,28.36l0 -68.73c10.26,-4.51 20.41,-9.38 30.39,-14.56z"/>
   <path class="fil1" d="M502.35 319.98l0 -28.58 11.76 0c2.53,0 4.7,0.41 6.53,1.23 1.79,0.82 3.18,2 4.16,3.51 0.98,1.51 1.47,3.35 1.47,5.43 0,2.08 -0.49,3.92 -1.47,5.43 -0.98,1.51 -2.37,2.69 -4.16,3.51 -1.84,0.82 -4,1.23 -6.53,1.23l-8.82 0 2.37 -2.49 0 10.74 -5.31 0zm5.31 -10.17l-2.37 -2.57 8.57 0c2.33,0 4.13,-0.49 5.31,-1.51 1.18,-0.98 1.76,-2.37 1.76,-4.16 0,-1.84 -0.57,-3.23 -1.76,-4.2 -1.18,-0.98 -2.98,-1.47 -5.31,-1.47l-8.57 0 2.37 -2.61 0 16.53z"/>
   <polygon class="fil1" points="536.56,319.98 536.56,295.9 527.09,295.9 527.09,291.4 551.34,291.4 551.34,295.9 541.86,295.9 541.86,319.98 "/>
   <path class="fil1" d="M555.17 320.27c-0.94,0 -1.72,-0.33 -2.37,-0.98 -0.65,-0.61 -0.98,-1.43 -0.98,-2.41 0,-1.02 0.33,-1.88 0.98,-2.49 0.65,-0.61 1.43,-0.9 2.37,-0.9 0.94,0 1.72,0.28 2.37,0.9 0.65,0.61 0.98,1.47 0.98,2.49 0,0.98 -0.33,1.8 -0.98,2.41 -0.65,0.65 -1.43,0.98 -2.37,0.98zm33.44 0.12c-2.24,0 -4.29,-0.37 -6.12,-1.1 -1.88,-0.69 -3.51,-1.72 -4.9,-3.06 -1.39,-1.31 -2.45,-2.86 -3.23,-4.65 -0.77,-1.79 -1.14,-3.75 -1.14,-5.88 0,-2.13 0.37,-4.09 1.14,-5.88 0.78,-1.8 1.84,-3.35 3.27,-4.7 1.39,-1.31 3.02,-2.32 4.9,-3.06 1.88,-0.69 3.92,-1.06 6.17,-1.06 2.41,0 4.61,0.41 6.57,1.18 1.92,0.78 3.55,1.96 4.9,3.47l-3.35 3.27c-1.1,-1.1 -2.33,-1.96 -3.59,-2.49 -1.31,-0.53 -2.74,-0.77 -4.29,-0.77 -1.51,0 -2.9,0.24 -4.16,0.73 -1.27,0.49 -2.37,1.18 -3.31,2.08 -0.94,0.9 -1.63,1.96 -2.12,3.19 -0.53,1.22 -0.78,2.57 -0.78,4.04 0,1.43 0.24,2.78 0.78,4 0.49,1.23 1.19,2.29 2.12,3.18 0.94,0.94 2,1.63 3.27,2.13 1.27,0.49 2.65,0.73 4.17,0.73 1.43,0 2.77,-0.24 4.12,-0.69 1.31,-0.45 2.57,-1.18 3.75,-2.24l3.02 3.96c-1.51,1.18 -3.23,2.08 -5.18,2.69 -2,0.65 -4,0.94 -6,0.94zm6.16 -4.33l0 -10.7 5.02 0 0 11.39 -5.02 -0.69zm32.09 -24.66l5.3 0 0 28.58 -5.3 0 0 -28.58zm-14.78 28.58l-5.31 0 0 -28.58 5.31 0 0 28.58zm15.18 -12.25l-15.63 0 0 -4.53 15.63 0 0 4.53zm8.53 12.25l12.86 -28.58 5.23 0 12.9 28.58 -5.55 0 -11.06 -25.76 2.12 0 -11.02 25.76 -5.47 0zm5.92 -6.61l1.43 -4.16 15.43 0 1.43 4.16 -18.29 0zm28.7 6.61l0 -28.58 5.31 0 0 24.09 14.94 0 0 4.49 -20.25 0zm29.35 -16.7l14.21 0 0 4.37 -14.21 0 0 -4.37zm0.41 12.25l16.13 0 0 4.45 -21.43 0 0 -28.58 20.86 0 0 4.45 -15.55 0 0 19.68zm22.05 4.45l0 -28.58 13.39 0c3.43,0 6.04,0.65 7.84,2 1.79,1.35 2.69,3.18 2.69,5.43 0,1.51 -0.37,2.82 -1.06,3.88 -0.69,1.1 -1.63,1.92 -2.82,2.49 -1.18,0.61 -2.49,0.9 -3.88,0.9l0.74 -1.47c1.59,0 3.06,0.28 4.33,0.86 1.26,0.61 2.28,1.47 3.06,2.57 0.74,1.1 1.1,2.49 1.1,4.16 0,2.45 -0.94,4.37 -2.81,5.71 -1.88,1.35 -4.66,2.04 -8.37,2.04l-14.21 0zm5.31 -4.16l8.57 0c2,0 3.51,-0.33 4.57,-0.98 1.06,-0.65 1.59,-1.72 1.59,-3.14 0,-1.43 -0.53,-2.45 -1.59,-3.14 -1.06,-0.65 -2.57,-0.98 -4.57,-0.98l-8.98 0 0 -4.13 7.92 0c1.84,0 3.27,-0.33 4.29,-0.98 0.98,-0.65 1.47,-1.63 1.47,-2.94 0,-1.35 -0.49,-2.33 -1.47,-2.98 -1.02,-0.65 -2.45,-0.98 -4.29,-0.98l-7.51 0 0 20.25zm37.02 4.16l0 -28.58 11.76 0c2.53,0 4.69,0.41 6.53,1.23 1.79,0.82 3.18,2 4.16,3.51 0.98,1.51 1.47,3.35 1.47,5.43 0,2.08 -0.49,3.92 -1.47,5.43 -0.98,1.51 -2.37,2.69 -4.16,3.51 -1.84,0.82 -4,1.23 -6.53,1.23l-8.82 0 2.37 -2.49 0 10.74 -5.31 0zm5.31 -10.17l-2.37 -2.57 8.57 0c2.33,0 4.13,-0.49 5.31,-1.51 1.18,-0.98 1.76,-2.37 1.76,-4.16 0,-1.84 -0.57,-3.23 -1.76,-4.2 -1.18,-0.98 -2.98,-1.47 -5.31,-1.47l-8.57 0 2.37 -2.61 0 16.53z"/>
   <path class="fil1" d="M788.31 319.98l12.86 -28.58 5.23 0 12.9 28.58 -5.55 0 -11.06 -25.76 2.12 0 -11.02 25.76 -5.47 0zm5.92 -6.61l1.43 -4.16 15.43 0 1.43 4.16 -18.29 0zm28.7 6.61l0 -28.58 5.31 0 0 24.09 14.94 0 0 4.49 -20.25 0zm24.46 0l0 -28.58 5.31 0 0 28.58 -5.31 0zm13.02 0l0 -28.58 4.37 0 17.92 22.01 -2.16 0 0 -22.01 5.27 0 0 28.58 -4.37 0 -17.92 -22.01 2.16 0 0 22.01 -5.27 0zm33.07 0l0 -28.58 12.49 0c3.1,0 5.84,0.61 8.16,1.8 2.33,1.18 4.16,2.86 5.47,4.98 1.31,2.12 1.96,4.61 1.96,7.51 0,2.86 -0.65,5.35 -1.96,7.47 -1.31,2.16 -3.14,3.84 -5.47,5.02 -2.33,1.18 -5.06,1.8 -8.16,1.8l-12.49 0zm5.31 -4.49l6.94 0c2.16,0 4,-0.41 5.59,-1.23 1.55,-0.82 2.78,-1.96 3.63,-3.43 0.86,-1.47 1.27,-3.18 1.27,-5.14 0,-2 -0.41,-3.72 -1.27,-5.19 -0.86,-1.43 -2.08,-2.57 -3.63,-3.39 -1.59,-0.82 -3.43,-1.23 -5.59,-1.23l-6.94 0 0 19.6zm41.8 4.9c-2.24,0 -4.29,-0.37 -6.16,-1.1 -1.88,-0.74 -3.51,-1.76 -4.9,-3.1 -1.39,-1.31 -2.45,-2.86 -3.23,-4.65 -0.78,-1.76 -1.14,-3.72 -1.14,-5.84 0,-2.13 0.37,-4.09 1.14,-5.88 0.77,-1.76 1.83,-3.31 3.23,-4.65 1.39,-1.31 3.02,-2.33 4.9,-3.06 1.88,-0.73 3.92,-1.1 6.12,-1.1 2.25,0 4.29,0.37 6.17,1.1 1.84,0.74 3.47,1.76 4.86,3.06 1.39,1.35 2.45,2.9 3.23,4.65 0.78,1.79 1.14,3.75 1.14,5.88 0,2.12 -0.37,4.08 -1.14,5.88 -0.77,1.8 -1.83,3.35 -3.23,4.65 -1.38,1.31 -3.02,2.33 -4.86,3.06 -1.88,0.73 -3.92,1.1 -6.12,1.1zm-0.04 -4.65c1.43,0 2.78,-0.24 4,-0.73 1.23,-0.49 2.29,-1.18 3.19,-2.13 0.9,-0.9 1.59,-1.96 2.12,-3.18 0.49,-1.18 0.73,-2.53 0.73,-4 0,-1.47 -0.24,-2.82 -0.73,-4.04 -0.53,-1.19 -1.23,-2.25 -2.12,-3.19 -0.9,-0.9 -1.96,-1.59 -3.19,-2.08 -1.22,-0.49 -2.57,-0.73 -4,-0.73 -1.43,0 -2.77,0.24 -3.96,0.73 -1.23,0.49 -2.29,1.18 -3.19,2.08 -0.94,0.94 -1.63,2 -2.12,3.19 -0.53,1.22 -0.78,2.57 -0.78,4.04 0,1.43 0.24,2.78 0.78,4 0.49,1.23 1.18,2.29 2.08,3.18 0.9,0.94 1.96,1.63 3.18,2.13 1.23,0.49 2.57,0.73 4,0.73zm32.3 4.25l0 -28.58 5.31 0 0 28.58 -5.31 0zm13.02 0l0 -28.58 4.37 0 17.92 22.01 -2.16 0 0 -22.01 5.27 0 0 28.58 -4.37 0 -17.92 -22.01 2.16 0 0 22.01 -5.27 0zm38.87 0l0 -24.09 -9.47 0 0 -4.49 24.25 0 0 4.49 -9.47 0 0 24.09 -5.31 0zm23.68 -16.7l14.21 0 0 4.37 -14.21 0 0 -4.37zm0.41 12.25l16.13 0 0 4.45 -21.43 0 0 -28.58 20.86 0 0 4.45 -15.55 0 0 19.68zm22.05 4.45l0 -28.58 11.76 0c2.53,0 4.69,0.41 6.53,1.23 1.79,0.82 3.18,2 4.16,3.51 0.98,1.51 1.47,3.35 1.47,5.43 0,2.08 -0.49,3.88 -1.47,5.39 -0.98,1.51 -2.37,2.69 -4.16,3.47 -1.84,0.82 -4,1.23 -6.53,1.23l-8.82 0 2.37 -2.41 0 10.74 -5.31 0zm18.7 0l-7.23 -10.37 5.68 0 7.27 10.37 -5.72 0zm-13.39 -10.17l-2.37 -2.53 8.57 0c2.33,0 4.13,-0.49 5.31,-1.51 1.18,-1.02 1.76,-2.41 1.76,-4.2 0,-1.84 -0.57,-3.23 -1.76,-4.2 -1.18,-0.98 -2.98,-1.47 -5.31,-1.47l-8.57 0 2.37 -2.61 0 16.53zm24.53 10.17l0 -28.58 4.37 0 17.92 22.01 -2.16 0 0 -22.01 5.27 0 0 28.58 -4.37 0 -17.92 -22.01 2.16 0 0 22.01 -5.27 0zm29.03 0l12.86 -28.58 5.23 0 12.9 28.58 -5.55 0 -11.06 -25.76 2.12 0 -11.02 25.76 -5.47 0zm5.92 -6.61l1.43 -4.16 15.43 0 1.43 4.16 -18.29 0z"/>
   <path class="fil1" d="M1168.69 319.98l0 -24.09 -9.47 0 0 -4.49 24.25 0 0 4.49 -9.47 0 0 24.09 -5.3 0zm18.78 0l0 -28.58 5.31 0 0 28.58 -5.31 0zm26.42 0.41c-2.24,0 -4.29,-0.37 -6.17,-1.1 -1.88,-0.74 -3.51,-1.76 -4.9,-3.1 -1.39,-1.31 -2.45,-2.86 -3.23,-4.65 -0.77,-1.76 -1.14,-3.72 -1.14,-5.84 0,-2.13 0.37,-4.09 1.14,-5.88 0.78,-1.76 1.84,-3.31 3.23,-4.65 1.39,-1.31 3.02,-2.33 4.9,-3.06 1.88,-0.73 3.92,-1.1 6.12,-1.1 2.25,0 4.29,0.37 6.17,1.1 1.84,0.74 3.47,1.76 4.86,3.06 1.39,1.35 2.45,2.9 3.23,4.65 0.78,1.79 1.14,3.75 1.14,5.88 0,2.12 -0.37,4.08 -1.14,5.88 -0.78,1.8 -1.84,3.35 -3.23,4.65 -1.38,1.31 -3.02,2.33 -4.86,3.06 -1.88,0.73 -3.92,1.1 -6.12,1.1zm-0.04 -4.65c1.43,0 2.78,-0.24 4,-0.73 1.22,-0.49 2.28,-1.18 3.18,-2.13 0.9,-0.9 1.59,-1.96 2.13,-3.18 0.49,-1.18 0.73,-2.53 0.73,-4 0,-1.47 -0.24,-2.82 -0.73,-4.04 -0.53,-1.19 -1.23,-2.25 -2.13,-3.19 -0.9,-0.9 -1.96,-1.59 -3.18,-2.08 -1.23,-0.49 -2.57,-0.73 -4,-0.73 -1.43,0 -2.77,0.24 -3.96,0.73 -1.22,0.49 -2.28,1.18 -3.18,2.08 -0.94,0.94 -1.63,2 -2.12,3.19 -0.53,1.22 -0.78,2.57 -0.78,4.04 0,1.43 0.24,2.78 0.78,4 0.49,1.23 1.18,2.29 2.08,3.18 0.9,0.94 1.96,1.63 3.19,2.13 1.23,0.49 2.57,0.73 4,0.73zm21.03 4.25l0 -28.58 4.37 0 17.92 22.01 -2.16 0 0 -22.01 5.27 0 0 28.58 -4.37 0 -17.92 -22.01 2.16 0 0 22.01 -5.27 0zm29.03 0l12.86 -28.58 5.23 0 12.9 28.58 -5.55 0 -11.06 -25.76 2.12 0 -11.02 25.76 -5.47 0zm5.92 -6.61l1.43 -4.16 15.43 0 1.43 4.16 -18.29 0zm28.7 6.61l0 -28.58 5.31 0 0 24.09 14.94 0 0 4.49 -20.25 0z"/>
   <path class="fil1" d="M1319.46 208.53l-32.09 0 0 -164.93 32.09 0 0 164.93zm-355.47 -110.05l0 83.97 8.35 0 0 -0.09 41.37 0 4.5 0 35.32 0 6.05 0 75.99 0 0 -36.78c0.66,-9.99 -4.78,-16.51 -16.23,-19.51l-48.51 0 0 -26.17 50.57 0c26.93,1.27 42.83,14.07 47.66,38.42l0 44.04 10.23 0 5.86 0 40.01 0 0 0.04 13.23 0 0 -138.8 32.09 0 0 138.8 0 26.13 -45.31 0 -4.51 0 -35.51 0 -5.86 0 -119.71 0 -6.05 0 -35.32 0 -4.5 0 -36.21 0 0 0.09 -15.2 0c-5.21,28.8 -22.47,42.54 -51.79,41.28l0 -28.14c15.1,-0.09 22.61,-10.6 22.52,-31.53l0 -91.75 30.96 0z"/>
   <path class="fil1" d="M820.74 146.02c1.03,-30.82 18.3,-46.58 51.83,-47.42l30.35 0 0 81.91c1.03,37.66 -17.45,55.72 -55.4,54.13l-26.79 0 0 -26.08 -6.19 0 0 0.09 -41 0 -4.88 0 -78.24 0 -4.5 0 -41.37 0 0 -0.09 -10.27 0c-2.3,15.01 -7.23,25.85 -14.82,32.55 -7.69,6.66 -19.05,9.52 -34.06,8.63l-37.66 0c-14.82,-0.09 -26.22,-4.64 -34.2,-13.65 -7.97,-9.01 -11.82,-25 -11.54,-47.89l0 -48.36 32.93 0 0 61.45c0.38,13.55 7.09,20.41 20.13,20.59l26.88 0c14.92,0.28 21.86,-8.91 20.83,-27.63l0 -95.64 31.52 0 0 83.83 15.76 0 0 0.05 35.88 0 4.5 0 36.59 0 0 -83.87 32.08 0 0 83.87 9.57 0 4.88 0 37.06 0 0 -0.05 10.13 0 0 -36.4zm-269.48 -96.96l28.99 0 0 28.99 -28.99 0 0 -28.99zm136.64 173.93l28.99 0 0 28.99 -28.99 0 0 -28.99zm41.37 0l28.71 0 0 28.99 -28.71 0 0 -28.99zm134.3 -96.25c-6.33,0.47 -9.81,4.08 -10.46,10.83l0 69.28 6.99 0c7.27,-0.37 10.65,-4.22 10.18,-11.54l0 -68.58 -6.71 0z"/>
  </g>
 </g>
</svg>
